# xmcd CD database file
#
# Track frame offsets:
#	183
#	11918
#	24573
#	37450
#	53585
#	66608
#	76448
#	88598
#	101108
#	117373
#	128215
#	138733
#	155380
#	167778
#	179158
#	189500
#	206363
#	216403
#
# Disc length: 3018 seconds
#
# Revision: 4
# Processed by: cddbd v1.5.2PL0 Copyright (c) Steve Scherf et al.
# Submitted via: CDex 1.51
#
DISCID=160bc812
DTITLE=Various Artist - Trucker Hits
DYEAR=1900
DGENRE=Country
TTITLE0=Dave Dudley - Six Days On The Road
TTITLE1=Ricky Williams - Eighteen Wheels
TTITLE2=Bobby McLee - Girl On The Billboard
TTITLE3=Red Sovine - Phantom 309
TTITLE4=Billy Wyman - M And Old C. B.
TTITLE5=John O'Hara - Dixie Winds
TTITLE6=Billy Wyman - Truck Driver's Prayer
TTITLE7=Anne "Chicken" Doyle - Diesel Smoke Sally
TTITLE8=Bobby Bare - The Waitress At Main Street Cafe
TTITLE9=Tedy Nelson - Honky Tonky Man
TTITLE10=Jonny Cash - You Win Again
TTITLE11=Billy Wayman - Giddy-Up Go
TTITLE12=George Kent - The Great South State Truck Stop Desaster
TTITLE13=David Price - The Lonesome Truck Driver's Waltz
TTITLE14=Anne "Chicken" Doyle - Soft Shoulders, Dangerous Curves
TTITLE15=Teddy Nelson - Semi-Truck
TTITLE16=Dave Dudley - Truck Drivin' Son Of A Gun
TTITLE17=Ricky Williams - Looking At The World Through A Windshield
EXTD=
EXTT0=
EXTT1=
EXTT2=
EXTT3=
EXTT4=
EXTT5=
EXTT6=
EXTT7=
EXTT8=
EXTT9=
EXTT10=
EXTT11=
EXTT12=
EXTT13=
EXTT14=
EXTT15=
EXTT16=
EXTT17=
PLAYORDER=
